<svg width="140" height="140" viewBox="0 0 140 140" fill="none" xmlns="http://www.w3.org/2000/svg">
<rect width="140" height="140" rx="70" fill="#F4F6F8"/>
<path d="M77.5 63.25H74.9012L73.6234 61.3338C73.555 61.2311 73.4623 61.147 73.3535 61.0888C73.2448 61.0306 73.1233 61.0001 73 61H67C66.8767 61.0001 66.7552 61.0306 66.6465 61.0888C66.5377 61.147 66.445 61.2311 66.3766 61.3338L65.0978 63.25H62.5C61.9033 63.25 61.331 63.4871 60.909 63.909C60.4871 64.331 60.25 64.9033 60.25 65.5V76C60.25 76.5967 60.4871 77.169 60.909 77.591C61.331 78.0129 61.9033 78.25 62.5 78.25H77.5C78.0967 78.25 78.669 78.0129 79.091 77.591C79.5129 77.169 79.75 76.5967 79.75 76V65.5C79.75 64.9033 79.5129 64.331 79.091 63.909C78.669 63.4871 78.0967 63.25 77.5 63.25ZM78.25 76C78.25 76.1989 78.171 76.3897 78.0303 76.5303C77.8897 76.671 77.6989 76.75 77.5 76.75H62.5C62.3011 76.75 62.1103 76.671 61.9697 76.5303C61.829 76.3897 61.75 76.1989 61.75 76V65.5C61.75 65.3011 61.829 65.1103 61.9697 64.9697C62.1103 64.829 62.3011 64.75 62.5 64.75H65.5C65.6235 64.7501 65.7451 64.7197 65.854 64.6614C65.963 64.6032 66.0558 64.519 66.1244 64.4163L67.4012 62.5H72.5978L73.8756 64.4163C73.9442 64.519 74.037 64.6032 74.146 64.6614C74.2549 64.7197 74.3765 64.7501 74.5 64.75H77.5C77.6989 64.75 77.8897 64.829 78.0303 64.9697C78.171 65.1103 78.25 65.3011 78.25 65.5V76ZM70 66.25C69.1842 66.25 68.3866 66.4919 67.7083 66.9452C67.0299 67.3984 66.5012 68.0427 66.189 68.7964C65.8768 69.5502 65.7951 70.3796 65.9543 71.1797C66.1134 71.9799 66.5063 72.7149 67.0832 73.2918C67.6601 73.8687 68.3951 74.2616 69.1953 74.4207C69.9954 74.5799 70.8248 74.4982 71.5786 74.186C72.3323 73.8738 72.9766 73.3451 73.4298 72.6667C73.8831 71.9884 74.125 71.1908 74.125 70.375C74.1238 69.2814 73.6888 68.2329 72.9154 67.4596C72.1421 66.6862 71.0936 66.2512 70 66.25ZM70 73C69.4808 73 68.9733 72.846 68.5416 72.5576C68.1099 72.2692 67.7735 71.8592 67.5748 71.3795C67.3761 70.8999 67.3242 70.3721 67.4254 69.8629C67.5267 69.3537 67.7767 68.886 68.1438 68.5188C68.511 68.1517 68.9787 67.9017 69.4879 67.8004C69.9971 67.6992 70.5249 67.7511 71.0045 67.9498C71.4842 68.1485 71.8942 68.4849 72.1826 68.9166C72.471 69.3483 72.625 69.8558 72.625 70.375C72.625 71.0712 72.3484 71.7389 71.8562 72.2312C71.3639 72.7234 70.6962 73 70 73Z" fill="#ACAEB0"/>
</svg>
